<?xml version="1.0" encoding="utf-8" standalone="no"?>
<!DOCTYPE svg PUBLIC "-//W3C//DTD SVG 1.1//EN"
  "http://www.w3.org/Graphics/SVG/1.1/DTD/svg11.dtd">
<svg xmlns:xlink="http://www.w3.org/1999/xlink" width="568.8pt" height="568.8pt" viewBox="0 0 568.8 568.8" xmlns="http://www.w3.org/2000/svg" version="1.1">
 <metadata>
  <rdf:RDF xmlns:dc="http://purl.org/dc/elements/1.1/" xmlns:cc="http://creativecommons.org/ns#" xmlns:rdf="http://www.w3.org/1999/02/22-rdf-syntax-ns#">
   <cc:Work>
    <dc:type rdf:resource="http://purl.org/dc/dcmitype/StillImage"/>
    <dc:date>2025-09-25T16:17:58.878161</dc:date>
    <dc:format>image/svg+xml</dc:format>
    <dc:creator>
     <cc:Agent>
      <dc:title>Matplotlib v3.9.2, https://matplotlib.org/</dc:title>
     </cc:Agent>
    </dc:creator>
   </cc:Work>
  </rdf:RDF>
 </metadata>
 <defs>
  <style type="text/css">*{stroke-linejoin: round; stroke-linecap: butt}</style>
 </defs>
 <g id="figure_1">
  <g id="patch_1">
   <path d="M 0 568.8 
L 568.8 568.8 
L 568.8 0 
L 0 0 
L 0 568.8 
z
" style="fill: none"/>
  </g>
  <g id="patch_2">
   <path d="M 7.2 561.6 
L 561.6 561.6 
L 561.6 7.2 
L 7.2 7.2 
L 7.2 561.6 
z
" style="fill: none"/>
  </g>
  <g id="axes_1">
   <g id="Poly3DCollection_1">
    <defs>
     <path id="ma7abef2d05" d="M 117.093197 -171.952347 
L 76.045291 -301.438178 
L 131.814274 -366.683053 
L 174.32693 -237.159891 
z
" style="stroke: #800000; stroke-opacity: 0.35"/>
    </defs>
    <g clip-path="url(#p83393c422f)">
     <use xlink:href="#ma7abef2d05" x="0" y="568.8" style="fill: #8b0000; fill-opacity: 0.35; stroke: #800000; stroke-opacity: 0.35"/>
    </g>
   </g>
   <g id="Poly3DCollection_2">
    <path d="M 79.399718 296.331109 
L 78.401549 257.745864 
L 398.349107 215.454468 
L 397.870924 252.713679 
L 79.399718 296.331109 
z
" clip-path="url(#p83393c422f)" style="fill: none"/>
    <path d="M 107.107747 381.953695 
L 79.399718 296.331109 
L 397.870924 252.713679 
L 429.733913 334.195993 
L 107.107747 381.953695 
z
" clip-path="url(#p83393c422f)" style="fill: none"/>
    <path d="M 125.314287 401.679314 
L 107.107747 381.953695 
L 429.733913 334.195993 
L 452.307946 352.365475 
L 125.314287 401.679314 
z
" clip-path="url(#p83393c422f)" style="fill: none"/>
    <path d="M 78.401549 257.745864 
L 121.18804 200.819777 
L 456.116526 158.677636 
L 398.349107 215.454468 
L 78.401549 257.745864 
z
" clip-path="url(#p83393c422f)" style="fill: none"/>
    <path d="M 172.061049 351.107882 
L 125.314287 401.679314 
L 452.307946 352.365475 
L 514.687871 301.297323 
L 172.061049 351.107882 
z
" clip-path="url(#p83393c422f)" style="fill: none"/>
    <path d="M 121.18804 200.819777 
L 140.408508 218.266937 
L 480.041624 174.694153 
L 456.116526 158.677636 
L 121.18804 200.819777 
z
" clip-path="url(#p83393c422f)" style="fill: none"/>
    <path d="M 140.408508 218.266937 
L 171.445967 309.226692 
L 515.782327 260.971015 
L 480.041624 174.694153 
L 140.408508 218.266937 
z
" clip-path="url(#p83393c422f)" style="fill: none"/>
    <path d="M 171.445967 309.226692 
L 172.061049 351.107882 
L 514.687871 301.297323 
L 515.782327 260.971015 
L 171.445967 309.226692 
z
" clip-path="url(#p83393c422f)" style="fill: none"/>
   </g>
   <g id="Poly3DCollection_3">
    <defs>
     <path id="mc614660a68" d="M 125.314287 -167.120686 
L 107.107747 -186.846305 
L 79.399718 -272.468891 
L 78.401549 -311.054136 
L 121.18804 -367.980223 
L 140.408508 -350.533063 
L 171.445967 -259.573308 
L 172.061049 -217.692118 
z
" style="stroke: #000080; stroke-opacity: 0.35"/>
    </defs>
    <g clip-path="url(#p83393c422f)">
     <use xlink:href="#mc614660a68" x="0" y="568.8" style="fill: #00008b; fill-opacity: 0.35; stroke: #000080; stroke-opacity: 0.35"/>
    </g>
   </g>
  </g>
 </g>
 <defs>
  <clipPath id="p83393c422f">
   <rect x="7.2" y="7.2" width="554.4" height="554.4"/>
  </clipPath>
 </defs>
</svg>
