<?xml version="1.0" encoding="utf-8" standalone="no"?>
<!DOCTYPE svg PUBLIC "-//W3C//DTD SVG 1.1//EN"
  "http://www.w3.org/Graphics/SVG/1.1/DTD/svg11.dtd">
<svg xmlns:xlink="http://www.w3.org/1999/xlink" width="857.480972pt" height="401.527656pt" viewBox="0 0 857.480972 401.527656" xmlns="http://www.w3.org/2000/svg" version="1.1">
 <metadata>
  <rdf:RDF xmlns:dc="http://purl.org/dc/elements/1.1/" xmlns:cc="http://creativecommons.org/ns#" xmlns:rdf="http://www.w3.org/1999/02/22-rdf-syntax-ns#">
   <cc:Work>
    <dc:type rdf:resource="http://purl.org/dc/dcmitype/StillImage"/>
    <dc:date>2026-08-11T12:30:32.351977</dc:date>
    <dc:format>image/svg+xml</dc:format>
    <dc:creator>
     <cc:Agent>
      <dc:title>Matplotlib v3.10.0, https://matplotlib.org/</dc:title>
     </cc:Agent>
    </dc:creator>
   </cc:Work>
  </rdf:RDF>
 </metadata>
 <defs>
  <style type="text/css">*{stroke-linejoin: round; stroke-linecap: butt}</style>
 </defs>
 <g id="figure_1">
  <g id="patch_1">
   <path d="M 0 401.527656 
L 857.480972 401.527656 
L 857.480972 0 
L 0 0 
z
" style="fill: #ffffff"/>
  </g>
  <g id="axes_1">
   <g id="patch_2">
    <path d="M 62.513594 375.8 
L 430.939783 375.8 
L 430.939783 69.64 
L 62.513594 69.64 
z
" style="fill: #ffffff"/>
   </g>
   <g id="matplotlib.axis_1">
    <g id="xtick_1">
     <g id="line2d_1">
      <defs>
       <path id="m733ee78ec3" d="M 0 0 
L 0 3.5 
" style="stroke: #000000; stroke-width: 0.8"/>
      </defs>
      <g>
       <use xlink:href="#m733ee78ec3" x="154.620141" y="375.8" style="stroke: #000000; stroke-width: 0.8"/>
      </g>
     </g>
     <g id="text_1">
      <!-- 插值 (θ=80) -->
      <g transform="translate(124.2885 391.593125) scale(0.11 -0.11)">
       <defs>
        <path id="MicrosoftYaHei-63d2" d="M 3694 2409 
Q 3188 2253 2663 2116 
L 2663 1291 
L 3669 1291 
L 3669 866 
L 2663 866 
L 2663 -66 
L 3894 -66 
L 3894 3266 
L 2081 3266 
L 2081 3716 
L 3894 3716 
L 3894 4453 
Q 3156 4413 2306 4378 
Q 2269 4591 2219 4822 
Q 4225 4872 6025 5053 
L 6113 4603 
Q 5347 4538 4356 4478 
L 4356 3716 
L 6319 3716 
L 6319 3266 
L 4356 3266 
L 4356 -66 
L 5588 -66 
L 5588 872 
L 4594 872 
L 4594 1297 
L 5588 1297 
L 5588 2153 
L 4575 2153 
L 4575 2578 
L 6038 2578 
L 6038 -841 
L 5588 -841 
L 5588 -491 
L 2663 -491 
L 2663 -859 
L 2219 -859 
L 2219 2441 
Q 2913 2609 3481 2847 
L 3694 2409 
z
M 88 1966 
Q 491 2138 875 2319 
L 875 3728 
L 131 3728 
L 131 4166 
L 875 4166 
L 875 5316 
L 1331 5316 
L 1331 4166 
L 2050 4166 
L 2050 3728 
L 1331 3728 
L 1331 2541 
Q 1669 2709 1994 2884 
Q 2013 2572 2044 2384 
Q 1688 2203 1331 2022 
L 1331 -103 
Q 1331 -741 788 -772 
Q 538 -784 231 -778 
Q 206 -534 156 -259 
Q 456 -284 650 -284 
Q 875 -284 875 -47 
L 875 1788 
Q 513 1603 150 1416 
L 88 1966 
z
" transform="scale(0.015625)"/>
        <path id="MicrosoftYaHei-503c" d="M 1619 -216 
L 2250 -216 
L 2250 3653 
L 3725 3653 
L 3725 4222 
L 1913 4222 
L 1913 4647 
L 3725 4647 
L 3725 5309 
L 4200 5309 
L 4200 4647 
L 6169 4647 
L 6169 4222 
L 4200 4222 
L 4200 3653 
L 5713 3653 
L 5713 -216 
L 6306 -216 
L 6306 -641 
L 1619 -641 
L 1619 -216 
z
M 69 2247 
Q 906 3497 1369 5278 
L 1831 5141 
Q 1581 4334 1288 3628 
L 1288 -816 
L 831 -816 
L 831 2666 
Q 563 2166 263 1734 
Q 175 1997 69 2247 
z
M 2713 -216 
L 5250 -216 
L 5250 353 
L 2713 353 
L 2713 -216 
z
M 5250 3241 
L 2713 3241 
L 2713 2678 
L 5250 2678 
L 5250 3241 
z
M 2713 1716 
L 5250 1716 
L 5250 2278 
L 2713 2278 
L 2713 1716 
z
M 2713 753 
L 5250 753 
L 5250 1316 
L 2713 1316 
L 2713 753 
z
" transform="scale(0.015625)"/>
        <path id="MicrosoftYaHei-20" transform="scale(0.015625)"/>
        <path id="MicrosoftYaHei-28" d="M 1531 -1100 
Q 478 100 478 1847 
Q 478 3594 1531 4841 
L 2072 4841 
Q 1016 3544 1016 1853 
Q 1016 166 2066 -1100 
L 1531 -1100 
z
" transform="scale(0.015625)"/>
        <path id="MicrosoftYaHei-3b8" d="M 319 2509 
Q 319 3791 781 4484 
Q 1244 5178 2106 5178 
Q 3753 5178 3753 2591 
Q 3753 1309 3290 614 
Q 2828 -81 2003 -81 
Q 1209 -81 764 601 
Q 319 1284 319 2509 
z
M 3122 2838 
Q 3059 4669 2050 4669 
Q 1581 4669 1284 4192 
Q 988 3716 944 2838 
L 3122 2838 
z
M 941 2353 
Q 963 1406 1248 918 
Q 1534 431 2047 431 
Q 2547 431 2825 932 
Q 3103 1434 3125 2353 
L 941 2353 
z
" transform="scale(0.015625)"/>
        <path id="MicrosoftYaHei-3d" d="M 3972 2497 
L 788 2497 
L 788 2969 
L 3972 2969 
L 3972 2497 
z
M 3972 1053 
L 788 1053 
L 788 1525 
L 3972 1525 
L 3972 1053 
z
" transform="scale(0.015625)"/>
        <path id="MicrosoftYaHei-38" d="M 306 1350 
Q 306 1769 556 2122 
Q 806 2475 1200 2625 
Q 884 2803 700 3081 
Q 516 3359 516 3684 
Q 516 4028 692 4312 
Q 869 4597 1183 4759 
Q 1497 4922 1875 4922 
Q 2256 4922 2572 4761 
Q 2888 4600 3063 4315 
Q 3238 4031 3238 3684 
Q 3238 3366 3058 3086 
Q 2878 2806 2559 2625 
Q 2953 2472 3200 2119 
Q 3447 1766 3447 1350 
Q 3447 938 3250 611 
Q 3053 284 2690 103 
Q 2328 -78 1875 -78 
Q 1425 -78 1065 103 
Q 706 284 506 612 
Q 306 941 306 1350 
z
M 906 1378 
Q 906 947 1172 687 
Q 1438 428 1878 428 
Q 2309 428 2582 692 
Q 2856 956 2856 1378 
Q 2856 1778 2579 2051 
Q 2303 2325 1878 2325 
Q 1456 2325 1181 2058 
Q 906 1791 906 1378 
z
M 1081 3634 
Q 1081 3309 1312 3076 
Q 1544 2844 1878 2844 
Q 2206 2844 2445 3078 
Q 2684 3313 2684 3634 
Q 2684 3963 2454 4191 
Q 2225 4419 1878 4419 
Q 1534 4419 1307 4195 
Q 1081 3972 1081 3634 
z
" transform="scale(0.015625)"/>
        <path id="MicrosoftYaHei-30" d="M 284 2325 
Q 284 3606 709 4264 
Q 1134 4922 1941 4922 
Q 3478 4922 3478 2441 
Q 3478 1216 3045 567 
Q 2613 -81 1831 -81 
Q 1094 -81 689 534 
Q 284 1150 284 2325 
z
M 909 2353 
Q 909 425 1888 425 
Q 2850 425 2850 2384 
Q 2850 4413 1906 4413 
Q 909 4413 909 2353 
z
" transform="scale(0.015625)"/>
        <path id="MicrosoftYaHei-29" d="M 78 -1100 
Q 1131 163 1131 1853 
Q 1131 3547 72 4841 
L 616 4841 
Q 1672 3603 1672 1847 
Q 1672 91 616 -1100 
L 78 -1100 
z
" transform="scale(0.015625)"/>
       </defs>
       <use xlink:href="#MicrosoftYaHei-63d2"/>
       <use xlink:href="#MicrosoftYaHei-503c" transform="translate(100 0)"/>
       <use xlink:href="#MicrosoftYaHei-20" transform="translate(200 0)"/>
       <use xlink:href="#MicrosoftYaHei-28" transform="translate(229.589844 0)"/>
       <use xlink:href="#MicrosoftYaHei-3b8" transform="translate(262.988281 0)"/>
       <use xlink:href="#MicrosoftYaHei-3d" transform="translate(326.611328 0)"/>
       <use xlink:href="#MicrosoftYaHei-38" transform="translate(400.78125 0)"/>
       <use xlink:href="#MicrosoftYaHei-30" transform="translate(459.423828 0)"/>
       <use xlink:href="#MicrosoftYaHei-29" transform="translate(518.066406 0)"/>
      </g>
     </g>
    </g>
    <g id="xtick_2">
     <g id="line2d_2">
      <g>
       <use xlink:href="#m733ee78ec3" x="338.833236" y="375.8" style="stroke: #000000; stroke-width: 0.8"/>
      </g>
     </g>
     <g id="text_2">
      <!-- 外推 (θ=120) -->
      <g transform="translate(305.276361 391.593125) scale(0.11 -0.11)">
       <defs>
        <path id="MicrosoftYaHei-5916" d="M 38 2084 
Q 969 3503 1438 5316 
L 1950 5172 
Q 1800 4666 1638 4197 
L 3375 4197 
L 3375 3734 
Q 3044 628 569 -822 
Q 438 -616 244 -378 
Q 1456 341 2106 1422 
Q 1669 1791 1125 2172 
L 1444 2553 
Q 1975 2166 2350 1872 
Q 2738 2678 2850 3722 
L 1456 3722 
Q 1019 2616 325 1553 
Q 200 1809 38 2084 
z
M 3988 5266 
L 4513 5266 
L 4513 3116 
L 4763 3397 
Q 5656 2703 6356 2128 
L 6000 1666 
Q 5338 2278 4513 2972 
L 4513 -859 
L 3988 -859 
L 3988 5266 
z
" transform="scale(0.015625)"/>
        <path id="MicrosoftYaHei-63a8" d="M 1694 3016 
Q 2488 3978 3106 5334 
L 3575 5178 
Q 3338 4681 3075 4222 
L 6200 4222 
L 6200 3797 
L 4650 3797 
L 4650 2828 
L 6113 2828 
L 6113 2403 
L 4650 2403 
L 4650 1434 
L 6113 1434 
L 6113 1009 
L 4650 1009 
L 4650 22 
L 6300 22 
L 6300 -391 
L 2875 -391 
L 2875 -859 
L 2400 -859 
L 2400 3150 
Q 2225 2903 2044 2666 
Q 1931 2803 1694 3016 
z
M 88 1978 
Q 506 2075 894 2175 
L 894 3691 
L 131 3691 
L 131 4128 
L 894 4128 
L 894 5316 
L 1363 5316 
L 1363 4128 
L 2088 4128 
L 2088 3691 
L 1363 3691 
L 1363 2297 
Q 1744 2400 2088 2503 
Q 2100 2216 2131 2016 
Q 1728 1903 1363 1797 
L 1363 -97 
Q 1363 -734 869 -766 
Q 556 -784 231 -778 
Q 206 -528 156 -259 
Q 469 -284 656 -284 
Q 894 -284 894 -41 
L 894 1663 
Q 500 1547 150 1441 
L 88 1978 
z
M 2875 22 
L 4175 22 
L 4175 1009 
L 2875 1009 
L 2875 22 
z
M 2875 1434 
L 4175 1434 
L 4175 2403 
L 2875 2403 
L 2875 1434 
z
M 2875 2828 
L 4175 2828 
L 4175 3797 
L 2875 3797 
L 2875 2828 
z
M 4019 5072 
L 4413 5316 
Q 4719 4922 4975 4541 
L 4544 4272 
Q 4313 4659 4019 5072 
z
" transform="scale(0.015625)"/>
        <path id="MicrosoftYaHei-31" d="M 1781 0 
L 1781 4141 
Q 1638 3997 1295 3819 
Q 953 3641 663 3569 
L 663 4169 
Q 1047 4275 1484 4508 
Q 1922 4741 2156 4947 
L 2388 4947 
L 2388 0 
L 1781 0 
z
" transform="scale(0.015625)"/>
        <path id="MicrosoftYaHei-32" d="M 2666 3572 
Q 2666 3963 2419 4186 
Q 2172 4409 1747 4409 
Q 1447 4409 1140 4256 
Q 834 4103 569 3819 
L 569 4413 
Q 806 4659 1107 4790 
Q 1409 4922 1816 4922 
Q 2472 4922 2872 4570 
Q 3272 4219 3272 3619 
Q 3272 3084 3026 2693 
Q 2781 2303 2188 1894 
Q 1581 1475 1376 1294 
Q 1172 1113 1090 947 
Q 1009 781 1009 544 
L 3416 544 
L 3416 0 
L 372 0 
L 372 241 
Q 372 659 486 951 
Q 600 1244 862 1520 
Q 1125 1797 1681 2184 
Q 2250 2584 2458 2886 
Q 2666 3188 2666 3572 
z
" transform="scale(0.015625)"/>
       </defs>
       <use xlink:href="#MicrosoftYaHei-5916"/>
       <use xlink:href="#MicrosoftYaHei-63a8" transform="translate(100 0)"/>
       <use xlink:href="#MicrosoftYaHei-20" transform="translate(200 0)"/>
       <use xlink:href="#MicrosoftYaHei-28" transform="translate(229.589844 0)"/>
       <use xlink:href="#MicrosoftYaHei-3b8" transform="translate(262.988281 0)"/>
       <use xlink:href="#MicrosoftYaHei-3d" transform="translate(326.611328 0)"/>
       <use xlink:href="#MicrosoftYaHei-31" transform="translate(400.78125 0)"/>
       <use xlink:href="#MicrosoftYaHei-32" transform="translate(459.423828 0)"/>
       <use xlink:href="#MicrosoftYaHei-30" transform="translate(518.066406 0)"/>
       <use xlink:href="#MicrosoftYaHei-29" transform="translate(576.708984 0)"/>
      </g>
     </g>
    </g>
   </g>
   <g id="matplotlib.axis_2">
    <g id="ytick_1">
     <g id="line2d_3">
      <path d="M 62.513594 342.298266 
L 430.939783 342.298266 
" clip-path="url(#pfab61ef530)" style="fill: none; stroke-dasharray: 2.96,1.28; stroke-dashoffset: 0; stroke: #b0b0b0; stroke-opacity: 0.22; stroke-width: 0.8"/>
     </g>
     <g id="line2d_4">
      <defs>
       <path id="mb29aa04de2" d="M 0 0 
L -3.5 0 
" style="stroke: #000000; stroke-width: 0.8"/>
      </defs>
      <g>
       <use xlink:href="#mb29aa04de2" x="62.513594" y="342.298266" style="stroke: #000000; stroke-width: 0.8"/>
      </g>
     </g>
     <g id="text_3">
      <!-- $10^{\mathrm{-}10}$ -->
      <g transform="translate(24.823594 346.694829) scale(0.11 -0.11)">
       <defs>
        <path id="DejaVuSans-31" d="M 794 531 
L 1825 531 
L 1825 4091 
L 703 3866 
L 703 4441 
L 1819 4666 
L 2450 4666 
L 2450 531 
L 3481 531 
L 3481 0 
L 794 0 
L 794 531 
z
" transform="scale(0.015625)"/>
        <path id="DejaVuSans-30" d="M 2034 4250 
Q 1547 4250 1301 3770 
Q 1056 3291 1056 2328 
Q 1056 1369 1301 889 
Q 1547 409 2034 409 
Q 2525 409 2770 889 
Q 3016 1369 3016 2328 
Q 3016 3291 2770 3770 
Q 2525 4250 2034 4250 
z
M 2034 4750 
Q 2819 4750 3233 4129 
Q 3647 3509 3647 2328 
Q 3647 1150 3233 529 
Q 2819 -91 2034 -91 
Q 1250 -91 836 529 
Q 422 1150 422 2328 
Q 422 3509 836 4129 
Q 1250 4750 2034 4750 
z
" transform="scale(0.015625)"/>
        <path id="DejaVuSans-2212" d="M 678 2272 
L 4684 2272 
L 4684 1741 
L 678 1741 
L 678 2272 
z
" transform="scale(0.015625)"/>
       </defs>
       <use xlink:href="#DejaVuSans-31" transform="translate(0 0.765625)"/>
       <use xlink:href="#DejaVuSans-30" transform="translate(63.623047 0.765625)"/>
       <use xlink:href="#DejaVuSans-2212" transform="translate(128.203125 39.046875) scale(0.7)"/>
       <use xlink:href="#DejaVuSans-31" transform="translate(186.855469 39.046875) scale(0.7)"/>
       <use xlink:href="#DejaVuSans-30" transform="translate(231.391602 39.046875) scale(0.7)"/>
      </g>
     </g>
    </g>
    <g id="ytick_2">
     <g id="line2d_5">
      <path d="M 62.513594 299.714022 
L 430.939783 299.714022 
" clip-path="url(#pfab61ef530)" style="fill: none; stroke-dasharray: 2.96,1.28; stroke-dashoffset: 0; stroke: #b0b0b0; stroke-opacity: 0.22; stroke-width: 0.8"/>
     </g>
     <g id="line2d_6">
      <g>
       <use xlink:href="#mb29aa04de2" x="62.513594" y="299.714022" style="stroke: #000000; stroke-width: 0.8"/>
      </g>
     </g>
     <g id="text_4">
      <!-- $10^{\mathrm{-}9}$ -->
      <g transform="translate(29.663594 304.110585) scale(0.11 -0.11)">
       <defs>
        <path id="DejaVuSans-39" d="M 703 97 
L 703 672 
Q 941 559 1184 500 
Q 1428 441 1663 441 
Q 2288 441 2617 861 
Q 2947 1281 2994 2138 
Q 2813 1869 2534 1725 
Q 2256 1581 1919 1581 
Q 1219 1581 811 2004 
Q 403 2428 403 3163 
Q 403 3881 828 4315 
Q 1253 4750 1959 4750 
Q 2769 4750 3195 4129 
Q 3622 3509 3622 2328 
Q 3622 1225 3098 567 
Q 2575 -91 1691 -91 
Q 1453 -91 1209 -44 
Q 966 3 703 97 
z
M 1959 2075 
Q 2384 2075 2632 2365 
Q 2881 2656 2881 3163 
Q 2881 3666 2632 3958 
Q 2384 4250 1959 4250 
Q 1534 4250 1286 3958 
Q 1038 3666 1038 3163 
Q 1038 2656 1286 2365 
Q 1534 2075 1959 2075 
z
" transform="scale(0.015625)"/>
       </defs>
       <use xlink:href="#DejaVuSans-31" transform="translate(0 0.765625)"/>
       <use xlink:href="#DejaVuSans-30" transform="translate(63.623047 0.765625)"/>
       <use xlink:href="#DejaVuSans-2212" transform="translate(128.203125 39.046875) scale(0.7)"/>
       <use xlink:href="#DejaVuSans-39" transform="translate(186.855469 39.046875) scale(0.7)"/>
      </g>
     </g>
    </g>
    <g id="ytick_3">
     <g id="line2d_7">
      <path d="M 62.513594 257.129779 
L 430.939783 257.129779 
" clip-path="url(#pfab61ef530)" style="fill: none; stroke-dasharray: 2.96,1.28; stroke-dashoffset: 0; stroke: #b0b0b0; stroke-opacity: 0.22; stroke-width: 0.8"/>
     </g>
     <g id="line2d_8">
      <g>
       <use xlink:href="#mb29aa04de2" x="62.513594" y="257.129779" style="stroke: #000000; stroke-width: 0.8"/>
      </g>
     </g>
     <g id="text_5">
      <!-- $10^{\mathrm{-}8}$ -->
      <g transform="translate(29.663594 261.526341) scale(0.11 -0.11)">
       <defs>
        <path id="DejaVuSans-38" d="M 2034 2216 
Q 1584 2216 1326 1975 
Q 1069 1734 1069 1313 
Q 1069 891 1326 650 
Q 1584 409 2034 409 
Q 2484 409 2743 651 
Q 3003 894 3003 1313 
Q 3003 1734 2745 1975 
Q 2488 2216 2034 2216 
z
M 1403 2484 
Q 997 2584 770 2862 
Q 544 3141 544 3541 
Q 544 4100 942 4425 
Q 1341 4750 2034 4750 
Q 2731 4750 3128 4425 
Q 3525 4100 3525 3541 
Q 3525 3141 3298 2862 
Q 3072 2584 2669 2484 
Q 3125 2378 3379 2068 
Q 3634 1759 3634 1313 
Q 3634 634 3220 271 
Q 2806 -91 2034 -91 
Q 1263 -91 848 271 
Q 434 634 434 1313 
Q 434 1759 690 2068 
Q 947 2378 1403 2484 
z
M 1172 3481 
Q 1172 3119 1398 2916 
Q 1625 2713 2034 2713 
Q 2441 2713 2670 2916 
Q 2900 3119 2900 3481 
Q 2900 3844 2670 4047 
Q 2441 4250 2034 4250 
Q 1625 4250 1398 4047 
Q 1172 3844 1172 3481 
z
" transform="scale(0.015625)"/>
       </defs>
       <use xlink:href="#DejaVuSans-31" transform="translate(0 0.765625)"/>
       <use xlink:href="#DejaVuSans-30" transform="translate(63.623047 0.765625)"/>
       <use xlink:href="#DejaVuSans-2212" transform="translate(128.203125 39.046875) scale(0.7)"/>
       <use xlink:href="#DejaVuSans-38" transform="translate(186.855469 39.046875) scale(0.7)"/>
      </g>
     </g>
    </g>
    <g id="ytick_4">
     <g id="line2d_9">
      <path d="M 62.513594 214.545535 
L 430.939783 214.545535 
" clip-path="url(#pfab61ef530)" style="fill: none; stroke-dasharray: 2.96,1.28; stroke-dashoffset: 0; stroke: #b0b0b0; stroke-opacity: 0.22; stroke-width: 0.8"/>
     </g>
     <g id="line2d_10">
      <g>
       <use xlink:href="#mb29aa04de2" x="62.513594" y="214.545535" style="stroke: #000000; stroke-width: 0.8"/>
      </g>
     </g>
     <g id="text_6">
      <!-- $10^{\mathrm{-}7}$ -->
      <g transform="translate(29.663594 218.942098) scale(0.11 -0.11)">
       <defs>
        <path id="DejaVuSans-37" d="M 525 4666 
L 3525 4666 
L 3525 4397 
L 1831 0 
L 1172 0 
L 2766 4134 
L 525 4134 
L 525 4666 
z
" transform="scale(0.015625)"/>
       </defs>
       <use xlink:href="#DejaVuSans-31" transform="translate(0 0.684375)"/>
       <use xlink:href="#DejaVuSans-30" transform="translate(63.623047 0.684375)"/>
       <use xlink:href="#DejaVuSans-2212" transform="translate(128.203125 38.965625) scale(0.7)"/>
       <use xlink:href="#DejaVuSans-37" transform="translate(186.855469 38.965625) scale(0.7)"/>
      </g>
     </g>
    </g>
    <g id="ytick_5">
     <g id="line2d_11">
      <path d="M 62.513594 171.961291 
L 430.939783 171.961291 
" clip-path="url(#pfab61ef530)" style="fill: none; stroke-dasharray: 2.96,1.28; stroke-dashoffset: 0; stroke: #b0b0b0; stroke-opacity: 0.22; stroke-width: 0.8"/>
     </g>
     <g id="line2d_12">
      <g>
       <use xlink:href="#mb29aa04de2" x="62.513594" y="171.961291" style="stroke: #000000; stroke-width: 0.8"/>
      </g>
     </g>
     <g id="text_7">
      <!-- $10^{\mathrm{-}6}$ -->
      <g transform="translate(29.663594 176.357854) scale(0.11 -0.11)">
       <defs>
        <path id="DejaVuSans-36" d="M 2113 2584 
Q 1688 2584 1439 2293 
Q 1191 2003 1191 1497 
Q 1191 994 1439 701 
Q 1688 409 2113 409 
Q 2538 409 2786 701 
Q 3034 994 3034 1497 
Q 3034 2003 2786 2293 
Q 2538 2584 2113 2584 
z
M 3366 4563 
L 3366 3988 
Q 3128 4100 2886 4159 
Q 2644 4219 2406 4219 
Q 1781 4219 1451 3797 
Q 1122 3375 1075 2522 
Q 1259 2794 1537 2939 
Q 1816 3084 2150 3084 
Q 2853 3084 3261 2657 
Q 3669 2231 3669 1497 
Q 3669 778 3244 343 
Q 2819 -91 2113 -91 
Q 1303 -91 875 529 
Q 447 1150 447 2328 
Q 447 3434 972 4092 
Q 1497 4750 2381 4750 
Q 2619 4750 2861 4703 
Q 3103 4656 3366 4563 
z
" transform="scale(0.015625)"/>
       </defs>
       <use xlink:href="#DejaVuSans-31" transform="translate(0 0.765625)"/>
       <use xlink:href="#DejaVuSans-30" transform="translate(63.623047 0.765625)"/>
       <use xlink:href="#DejaVuSans-2212" transform="translate(128.203125 39.046875) scale(0.7)"/>
       <use xlink:href="#DejaVuSans-36" transform="translate(186.855469 39.046875) scale(0.7)"/>
      </g>
     </g>
    </g>
    <g id="ytick_6">
     <g id="line2d_13">
      <path d="M 62.513594 129.377048 
L 430.939783 129.377048 
" clip-path="url(#pfab61ef530)" style="fill: none; stroke-dasharray: 2.96,1.28; stroke-dashoffset: 0; stroke: #b0b0b0; stroke-opacity: 0.22; stroke-width: 0.8"/>
     </g>
     <g id="line2d_14">
      <g>
       <use xlink:href="#mb29aa04de2" x="62.513594" y="129.377048" style="stroke: #000000; stroke-width: 0.8"/>
      </g>
     </g>
     <g id="text_8">
      <!-- $10^{\mathrm{-}5}$ -->
      <g transform="translate(29.663594 133.77361) scale(0.11 -0.11)">
       <defs>
        <path id="DejaVuSans-35" d="M 691 4666 
L 3169 4666 
L 3169 4134 
L 1269 4134 
L 1269 2991 
Q 1406 3038 1543 3061 
Q 1681 3084 1819 3084 
Q 2600 3084 3056 2656 
Q 3513 2228 3513 1497 
Q 3513 744 3044 326 
Q 2575 -91 1722 -91 
Q 1428 -91 1123 -41 
Q 819 9 494 109 
L 494 744 
Q 775 591 1075 516 
Q 1375 441 1709 441 
Q 2250 441 2565 725 
Q 2881 1009 2881 1497 
Q 2881 1984 2565 2268 
Q 2250 2553 1709 2553 
Q 1456 2553 1204 2497 
Q 953 2441 691 2322 
L 691 4666 
z
" transform="scale(0.015625)"/>
       </defs>
       <use xlink:href="#DejaVuSans-31" transform="translate(0 0.684375)"/>
       <use xlink:href="#DejaVuSans-30" transform="translate(63.623047 0.684375)"/>
       <use xlink:href="#DejaVuSans-2212" transform="translate(128.203125 38.965625) scale(0.7)"/>
       <use xlink:href="#DejaVuSans-35" transform="translate(186.855469 38.965625) scale(0.7)"/>
      </g>
     </g>
    </g>
    <g id="ytick_7">
     <g id="line2d_15">
      <path d="M 62.513594 86.792804 
L 430.939783 86.792804 
" clip-path="url(#pfab61ef530)" style="fill: none; stroke-dasharray: 2.96,1.28; stroke-dashoffset: 0; stroke: #b0b0b0; stroke-opacity: 0.22; stroke-width: 0.8"/>
     </g>
     <g id="line2d_16">
      <g>
       <use xlink:href="#mb29aa04de2" x="62.513594" y="86.792804" style="stroke: #000000; stroke-width: 0.8"/>
      </g>
     </g>
     <g id="text_9">
      <!-- $10^{\mathrm{-}4}$ -->
      <g transform="translate(29.663594 91.189366) scale(0.11 -0.11)">
       <defs>
        <path id="DejaVuSans-34" d="M 2419 4116 
L 825 1625 
L 2419 1625 
L 2419 4116 
z
M 2253 4666 
L 3047 4666 
L 3047 1625 
L 3713 1625 
L 3713 1100 
L 3047 1100 
L 3047 0 
L 2419 0 
L 2419 1100 
L 313 1100 
L 313 1709 
L 2253 4666 
z
" transform="scale(0.015625)"/>
       </defs>
       <use xlink:href="#DejaVuSans-31" transform="translate(0 0.684375)"/>
       <use xlink:href="#DejaVuSans-30" transform="translate(63.623047 0.684375)"/>
       <use xlink:href="#DejaVuSans-2212" transform="translate(128.203125 38.965625) scale(0.7)"/>
       <use xlink:href="#DejaVuSans-34" transform="translate(186.855469 38.965625) scale(0.7)"/>
      </g>
     </g>
    </g>
    <g id="text_10">
     <!-- 可行性误差（对数坐标） -->
     <g transform="translate(17.591875 294.22) rotate(-90) scale(0.13 -0.13)">
      <defs>
       <path id="MicrosoftYaHei-53ef" d="M 813 3409 
L 3569 3409 
L 3569 941 
L 1306 941 
L 1306 497 
L 813 497 
L 813 3409 
z
M 119 4809 
L 6294 4809 
L 6294 4334 
L 5256 4334 
L 5256 103 
Q 5256 -741 4438 -747 
Q 3850 -747 3294 -741 
Q 3263 -453 3194 -172 
Q 3900 -222 4269 -222 
Q 4731 -222 4731 278 
L 4731 4334 
L 119 4334 
L 119 4809 
z
M 3075 2966 
L 1306 2966 
L 1306 1384 
L 3075 1384 
L 3075 2966 
z
" transform="scale(0.015625)"/>
       <path id="MicrosoftYaHei-884c" d="M 2363 2978 
L 6319 2978 
L 6319 2509 
L 5106 2509 
L 5106 66 
Q 5106 -709 4325 -709 
Q 3800 -709 3256 -703 
Q 3219 -453 3163 -141 
Q 3650 -191 4144 -191 
Q 4575 -191 4575 234 
L 4575 2509 
L 2363 2509 
L 2363 2978 
z
M 100 1578 
Q 1069 2372 1863 3809 
L 2300 3541 
Q 1978 2984 1619 2500 
L 1619 -809 
L 1100 -809 
L 1100 1856 
Q 725 1431 319 1072 
Q 219 1334 100 1578 
z
M 2725 4866 
L 5969 4866 
L 5969 4397 
L 2725 4397 
L 2725 4866 
z
M 131 3559 
Q 1125 4328 1731 5347 
L 2181 5072 
Q 1456 3959 381 3078 
Q 269 3316 131 3559 
z
" transform="scale(0.015625)"/>
       <path id="MicrosoftYaHei-6027" d="M 1963 -153 
L 3988 -153 
L 3988 1522 
L 2375 1522 
L 2375 1959 
L 3988 1959 
L 3988 3472 
L 2975 3472 
Q 2744 2878 2438 2291 
Q 2169 2509 2019 2578 
Q 2644 3709 2894 4891 
L 3388 4759 
Q 3281 4328 3138 3909 
L 3988 3909 
L 3988 5284 
L 4481 5284 
L 4481 3909 
L 6125 3909 
L 6125 3472 
L 4481 3472 
L 4481 1959 
L 6000 1959 
L 6000 1522 
L 4481 1522 
L 4481 -153 
L 6319 -153 
L 6319 -591 
L 1963 -591 
L 1963 -153 
z
M 988 5291 
L 1469 5291 
L 1469 4091 
L 1738 4241 
Q 2063 3734 2294 3291 
L 1906 3041 
Q 1688 3503 1469 3859 
L 1469 -872 
L 988 -872 
L 988 5291 
z
M 406 3878 
L 819 3784 
Q 706 3028 506 2178 
Q 338 2241 75 2297 
Q 263 2978 406 3878 
z
" transform="scale(0.015625)"/>
       <path id="MicrosoftYaHei-8bef" d="M 1819 1484 
L 3706 1484 
Q 3750 1769 3756 2222 
L 2044 2222 
L 2044 2659 
L 6069 2659 
L 6069 2222 
L 4244 2222 
Q 4234 1753 4203 1484 
L 6288 1484 
L 6288 1047 
L 4356 1047 
Q 4913 -53 6363 -359 
Q 6138 -628 5981 -828 
Q 4538 -406 3984 850 
Q 3569 -272 1969 -847 
Q 1819 -653 1631 -441 
Q 3188 53 3588 1047 
L 1819 1047 
L 1819 1484 
z
M 2325 5034 
L 5750 5034 
L 5750 2991 
L 5275 2991 
L 5275 3272 
L 2800 3272 
L 2800 2991 
L 2325 2991 
L 2325 5034 
z
M 2044 784 
Q 2063 459 2088 247 
Q 1294 -272 925 -584 
L 631 -166 
Q 844 9 844 378 
L 844 2716 
L 100 2716 
L 100 3166 
L 1325 3166 
L 1325 284 
Q 1763 578 2044 784 
z
M 5275 4616 
L 2800 4616 
L 2800 3691 
L 5275 3691 
L 5275 4616 
z
M 831 5153 
Q 1281 4697 1725 4184 
L 1294 3822 
Q 881 4347 450 4822 
L 831 5153 
z
" transform="scale(0.015625)"/>
       <path id="MicrosoftYaHei-5dee" d="M 1094 -172 
L 3419 -172 
L 3419 891 
L 1813 891 
L 1813 1088 
Q 1200 394 331 -197 
Q 206 3 31 247 
Q 1213 1028 1859 1984 
L 200 1984 
L 200 2409 
L 2119 2409 
Q 2275 2694 2409 3028 
L 638 3028 
L 638 3447 
L 2569 3447 
Q 2666 3728 2750 4041 
L 488 4041 
L 488 4466 
L 2075 4466 
Q 1813 4797 1513 5122 
L 1869 5397 
Q 2231 5047 2563 4672 
L 2278 4466 
L 4219 4466 
L 3975 4684 
Q 4344 5047 4631 5403 
L 5056 5122 
Q 4738 4772 4413 4466 
L 6050 4466 
L 6050 4041 
L 3291 4041 
Q 3206 3731 3109 3447 
L 5813 3447 
L 5813 3028 
L 2963 3028 
Q 2838 2700 2697 2409 
L 6294 2409 
L 6294 1984 
L 2469 1984 
Q 2259 1634 1997 1309 
L 5613 1309 
L 5613 891 
L 3925 891 
L 3925 -172 
L 6213 -172 
L 6213 -597 
L 1094 -597 
L 1094 -172 
z
" transform="scale(0.015625)"/>
       <path id="MicrosoftYaHei-ff08" d="M 5288 -1100 
Q 4172 119 4172 1850 
Q 4172 3603 5288 4838 
L 5825 4838 
Q 4716 3572 4716 1856 
Q 4716 166 5819 -1100 
L 5288 -1100 
z
" transform="scale(0.015625)"/>
       <path id="MicrosoftYaHei-5bf9" d="M 694 3691 
Q 1234 2909 1741 2166 
Q 2113 3081 2213 4147 
L 250 4147 
L 250 4622 
L 2725 4622 
L 2725 4166 
Q 2553 2809 2059 1700 
Q 2569 953 3044 247 
L 2594 -53 
Q 2203 563 1803 1181 
Q 1247 163 388 -622 
Q 263 -428 81 -166 
Q 975 638 1500 1647 
Q 919 2538 319 3434 
L 694 3691 
z
M 2975 3941 
L 5056 3941 
L 5056 5278 
L 5563 5278 
L 5563 3941 
L 6325 3941 
L 6325 3466 
L 5563 3466 
L 5563 191 
Q 5563 -716 4669 -716 
Q 4388 -716 3744 -709 
Q 3713 -478 3644 -147 
Q 4263 -197 4588 -197 
Q 5056 -197 5056 278 
L 5056 3466 
L 2975 3466 
L 2975 3941 
z
M 3088 2684 
L 3494 2928 
Q 4000 2184 4388 1484 
L 3919 1216 
Q 3550 1922 3088 2684 
z
" transform="scale(0.015625)"/>
       <path id="MicrosoftYaHei-6570" d="M 4175 5303 
L 4675 5228 
Q 4544 4622 4369 4097 
L 6281 4097 
L 6281 3672 
L 5888 3672 
Q 5731 1834 5088 753 
Q 5594 66 6375 -372 
Q 6175 -647 6038 -866 
Q 5275 -372 4769 309 
Q 4194 -403 3400 -928 
Q 3263 -747 3044 -534 
Q 3919 41 4463 772 
Q 3956 1647 3794 2791 
Q 3663 2559 3519 2359 
Q 3394 2541 3206 2759 
Q 3931 3803 4175 5303 
z
M 150 1697 
L 1100 1697 
Q 1238 1934 1369 2184 
L 1819 2041 
Q 1719 1866 1619 1697 
L 3150 1697 
L 3150 1291 
Q 2913 678 2431 216 
Q 2775 53 3131 -109 
L 2856 -541 
Q 2469 -322 2050 -103 
Q 1344 -609 269 -903 
Q 169 -703 56 -466 
Q 969 -259 1600 128 
Q 1063 403 475 691 
Q 675 978 863 1284 
L 150 1284 
L 150 1697 
z
M 219 3847 
L 1656 3847 
L 1656 5247 
L 2119 5247 
L 2119 3847 
L 3319 3847 
L 3319 3434 
L 2119 3434 
L 2119 3053 
L 2306 3266 
Q 2888 2841 3281 2516 
L 2981 2166 
Q 2638 2491 2119 2897 
L 2119 2184 
L 1656 2184 
L 1656 3059 
Q 1088 2466 331 2016 
Q 213 2197 63 2397 
Q 850 2822 1506 3434 
L 219 3434 
L 219 3847 
z
M 5388 3672 
L 4219 3672 
Q 4188 3591 4150 3516 
Q 4263 2191 4775 1247 
Q 5275 2159 5388 3672 
z
M 1088 834 
Q 1531 634 2000 416 
Q 2431 784 2675 1284 
L 1375 1284 
Q 1231 1053 1088 834 
z
M 3038 5091 
L 3425 4834 
Q 3081 4384 2738 4003 
Q 2594 4128 2400 4266 
Q 2725 4647 3038 5091 
z
M 381 4816 
L 738 5059 
Q 1019 4716 1319 4322 
L 931 4047 
Q 656 4453 381 4816 
z
" transform="scale(0.015625)"/>
       <path id="MicrosoftYaHei-5750" d="M 150 -53 
L 2950 -53 
L 2950 1134 
L 850 1134 
L 850 1609 
L 2950 1609 
L 2950 5291 
L 3450 5291 
L 3450 1609 
L 5550 1609 
L 5550 1134 
L 3450 1134 
L 3450 -53 
L 6275 -53 
L 6275 -528 
L 150 -528 
L 150 -53 
z
M 100 1934 
Q 1106 3084 1350 4772 
L 1850 4684 
Q 1763 4209 1631 3778 
Q 2088 3228 2694 2403 
L 2275 2053 
Q 1813 2784 1456 3278 
Q 1088 2322 475 1572 
Q 300 1778 100 1934 
z
M 3650 2266 
Q 4531 3253 4894 4772 
L 5375 4634 
Q 5219 4072 5000 3572 
Q 5663 2916 6269 2259 
L 5869 1891 
Q 5269 2647 4806 3141 
Q 4425 2422 3988 1897 
Q 3831 2084 3650 2266 
z
" transform="scale(0.015625)"/>
       <path id="MicrosoftYaHei-6807" d="M 75 1409 
Q 769 2478 1025 3647 
L 119 3647 
L 119 4072 
L 1069 4072 
L 1069 5297 
L 1506 5297 
L 1506 4072 
L 2356 4072 
L 2356 3647 
L 1506 3647 
L 1506 2541 
L 1775 2822 
Q 2175 2478 2481 2159 
L 2150 1816 
Q 1850 2156 1506 2503 
L 1506 -797 
L 1069 -797 
L 1069 2588 
Q 738 1513 281 859 
Q 194 1128 75 1409 
z
M 2350 3097 
L 6250 3097 
L 6250 2659 
L 4525 2659 
L 4525 47 
Q 4525 -734 3806 -734 
Q 3469 -741 2975 -728 
Q 2944 -503 2888 -209 
Q 3319 -259 3675 -259 
Q 4050 -259 4050 203 
L 4050 2659 
L 2350 2659 
L 2350 3097 
z
M 2638 4928 
L 5963 4928 
L 5963 4491 
L 2638 4491 
L 2638 4928 
z
M 4938 1853 
L 5381 2066 
Q 5975 928 6369 72 
L 5869 -147 
Q 5463 822 4938 1853 
z
M 2931 2066 
L 3400 1878 
Q 2888 734 2381 -153 
Q 2188 -41 1925 66 
Q 2425 872 2931 2066 
z
" transform="scale(0.015625)"/>
       <path id="MicrosoftYaHei-ff09" d="M 1113 -1100 
L 575 -1100 
Q 1684 163 1684 1888 
Q 1684 3581 581 4838 
L 1113 4838 
Q 2222 3628 2222 1888 
Q 2222 128 1113 -1100 
z
" transform="scale(0.015625)"/>
      </defs>
      <use xlink:href="#MicrosoftYaHei-53ef"/>
      <use xlink:href="#MicrosoftYaHei-884c" transform="translate(100 0)"/>
      <use xlink:href="#MicrosoftYaHei-6027" transform="translate(200 0)"/>
      <use xlink:href="#MicrosoftYaHei-8bef" transform="translate(300 0)"/>
      <use xlink:href="#MicrosoftYaHei-5dee" transform="translate(400 0)"/>
      <use xlink:href="#MicrosoftYaHei-ff08" transform="translate(500 0)"/>
      <use xlink:href="#MicrosoftYaHei-5bf9" transform="translate(600 0)"/>
      <use xlink:href="#MicrosoftYaHei-6570" transform="translate(700 0)"/>
      <use xlink:href="#MicrosoftYaHei-5750" transform="translate(800 0)"/>
      <use xlink:href="#MicrosoftYaHei-6807" transform="translate(900 0)"/>
      <use xlink:href="#MicrosoftYaHei-ff09" transform="translate(1000 0)"/>
     </g>
    </g>
   </g>
   <g id="patch_3">
    <path d="M 115.935391 311.641998 
L 193.304891 311.641998 
L 193.304891 106.581798 
L 115.935391 106.581798 
L 115.935391 311.641998 
z
" clip-path="url(#pfab61ef530)" style="fill: #5da5da; opacity: 0.26; stroke: #5da5da; stroke-width: 1.2; stroke-linejoin: miter"/>
   </g>
   <g id="line2d_17">
    <path d="M 154.620141 311.641998 
L 154.620141 358.854026 
" clip-path="url(#pfab61ef530)" style="fill: none; stroke: #5da5da; stroke-width: 1.1; stroke-linecap: square"/>
   </g>
   <g id="line2d_18">
    <path d="M 154.620141 106.581798 
L 154.620141 106.581798 
" clip-path="url(#pfab61ef530)" style="fill: none; stroke: #5da5da; stroke-width: 1.1; stroke-linecap: square"/>
   </g>
   <g id="line2d_19">
    <path d="M 135.277766 358.854026 
L 173.962516 358.854026 
" clip-path="url(#pfab61ef530)" style="fill: none; stroke: #5da5da; stroke-width: 1.1; stroke-linecap: square"/>
   </g>
   <g id="line2d_20">
    <path d="M 135.277766 106.581798 
L 173.962516 106.581798 
" clip-path="url(#pfab61ef530)" style="fill: none; stroke: #5da5da; stroke-width: 1.1; stroke-linecap: square"/>
   </g>
   <g id="patch_4">
    <path d="M 300.148486 313.24379 
L 377.517986 313.24379 
L 377.517986 302.786034 
L 300.148486 302.786034 
L 300.148486 313.24379 
z
" clip-path="url(#pfab61ef530)" style="fill: #5da5da; opacity: 0.26; stroke: #5da5da; stroke-width: 1.2; stroke-linejoin: miter"/>
   </g>
   <g id="line2d_21">
    <path d="M 338.833236 313.24379 
L 338.833236 322.664601 
" clip-path="url(#pfab61ef530)" style="fill: none; stroke: #5da5da; stroke-width: 1.1; stroke-linecap: square"/>
   </g>
   <g id="line2d_22">
    <path d="M 338.833236 302.786034 
L 338.833236 299.624861 
" clip-path="url(#pfab61ef530)" style="fill: none; stroke: #5da5da; stroke-width: 1.1; stroke-linecap: square"/>
   </g>
   <g id="line2d_23">
    <path d="M 319.490861 322.664601 
L 358.175611 322.664601 
" clip-path="url(#pfab61ef530)" style="fill: none; stroke: #5da5da; stroke-width: 1.1; stroke-linecap: square"/>
   </g>
   <g id="line2d_24">
    <path d="M 319.490861 299.624861 
L 358.175611 299.624861 
" clip-path="url(#pfab61ef530)" style="fill: none; stroke: #5da5da; stroke-width: 1.1; stroke-linecap: square"/>
   </g>
   <g id="line2d_25">
    <path d="M 115.935391 138.783988 
L 193.304891 138.783988 
" clip-path="url(#pfab61ef530)" style="fill: none; stroke: #000000; stroke-width: 1.8"/>
   </g>
   <g id="line2d_26">
    <path d="M 300.148486 307.127438 
L 377.517986 307.127438 
" clip-path="url(#pfab61ef530)" style="fill: none; stroke: #000000; stroke-width: 1.8"/>
   </g>
   <g id="patch_5">
    <path d="M 62.513594 375.8 
L 62.513594 69.64 
" style="fill: none; stroke: #000000; stroke-width: 0.8; stroke-linejoin: miter; stroke-linecap: square"/>
   </g>
   <g id="patch_6">
    <path d="M 62.513594 375.8 
L 430.939783 375.8 
" style="fill: none; stroke: #000000; stroke-width: 0.8; stroke-linejoin: miter; stroke-linecap: square"/>
   </g>
   <g id="PathCollection_1">
    <defs>
     <path id="C0_0_1042637801" d="M 0 2.44949 
C 0.649612 2.44949 1.272706 2.191396 1.732051 1.732051 
C 2.191396 1.272706 2.44949 0.649612 2.44949 -0 
C 2.44949 -0.649612 2.191396 -1.272706 1.732051 -1.732051 
C 1.272706 -2.191396 0.649612 -2.44949 0 -2.44949 
C -0.649612 -2.44949 -1.272706 -2.191396 -1.732051 -1.732051 
C -2.191396 -1.272706 -2.44949 -0.649612 -2.44949 0 
C -2.44949 0.649612 -2.191396 1.272706 -1.732051 1.732051 
C -1.272706 2.191396 -0.649612 2.44949 0 2.44949 
z
"/>
    </defs>
    <g clip-path="url(#pfab61ef530)">
     <use xlink:href="#C0_0_1042637801" x="150.460098" y="358.854026" style="fill: #5da5da; fill-opacity: 0.7"/>
    </g>
    <g clip-path="url(#pfab61ef530)">
     <use xlink:href="#C0_0_1042637801" x="169.565087" y="86.585974" style="fill: #5da5da; fill-opacity: 0.7"/>
    </g>
    <g clip-path="url(#pfab61ef530)">
     <use xlink:href="#C0_0_1042637801" x="162.312679" y="306.685124" style="fill: #5da5da; fill-opacity: 0.7"/>
    </g>
    <g clip-path="url(#pfab61ef530)">
     <use xlink:href="#C0_0_1042637801" x="157.891494" y="125.965908" style="fill: #5da5da; fill-opacity: 0.7"/>
    </g>
   </g>
   <g id="PathCollection_2">
    <defs>
     <path id="C1_0_3c6d93bbc4" d="M 0 2.44949 
C 0.649612 2.44949 1.272706 2.191396 1.732051 1.732051 
C 2.191396 1.272706 2.44949 0.649612 2.44949 -0 
C 2.44949 -0.649612 2.191396 -1.272706 1.732051 -1.732051 
C 1.272706 -2.191396 0.649612 -2.44949 0 -2.44949 
C -0.649612 -2.44949 -1.272706 -2.191396 -1.732051 -1.732051 
C -2.191396 -1.272706 -2.44949 -0.649612 -2.44949 0 
C -2.44949 0.649612 -2.191396 1.272706 -1.732051 1.732051 
C -1.272706 2.191396 -0.649612 2.44949 0 2.44949 
z
"/>
    </defs>
    <g clip-path="url(#pfab61ef530)">
     <use xlink:href="#C1_0_3c6d93bbc4" x="327.427379" y="299.624861" style="fill: #5da5da; fill-opacity: 0.7"/>
    </g>
    <g clip-path="url(#pfab61ef530)">
     <use xlink:href="#C1_0_3c6d93bbc4" x="327.426579" y="303.972425" style="fill: #5da5da; fill-opacity: 0.7"/>
    </g>
    <g clip-path="url(#pfab61ef530)">
     <use xlink:href="#C1_0_3c6d93bbc4" x="324.180014" y="310.933681" style="fill: #5da5da; fill-opacity: 0.7"/>
    </g>
    <g clip-path="url(#pfab61ef530)">
     <use xlink:href="#C1_0_3c6d93bbc4" x="350.975035" y="322.664601" style="fill: #5da5da; fill-opacity: 0.7"/>
    </g>
   </g>
   <g id="text_11">
    <!-- (a) 可行性误差（插值 vs 外推） -->
    <g transform="translate(141.00247 59.64) scale(0.15 -0.15)">
     <defs>
      <path id="MicrosoftYaHei-61" d="M 628 3216 
Q 1144 3538 1819 3538 
Q 3069 3538 3069 2225 
L 3069 0 
L 2463 0 
L 2463 534 
L 2447 534 
Q 2088 -81 1388 -81 
Q 884 -81 587 191 
Q 291 463 291 925 
Q 291 1894 1438 2053 
L 2463 2197 
Q 2463 3044 1763 3044 
Q 1141 3044 628 2625 
L 628 3216 
z
M 1653 1625 
Q 1228 1569 1067 1412 
Q 906 1256 906 975 
Q 906 728 1081 572 
Q 1256 416 1544 416 
Q 1944 416 2203 697 
Q 2463 978 2463 1403 
L 2463 1734 
L 1653 1625 
z
" transform="scale(0.015625)"/>
      <path id="MicrosoftYaHei-76" d="M 3331 3456 
L 1963 0 
L 1344 0 
L 44 3456 
L 713 3456 
L 1556 988 
Q 1659 691 1678 491 
L 1694 491 
Q 1725 753 1803 975 
L 2688 3456 
L 3331 3456 
z
" transform="scale(0.015625)"/>
      <path id="MicrosoftYaHei-73" d="M 353 747 
Q 816 413 1350 413 
Q 2066 413 2066 881 
Q 2066 1081 1909 1211 
Q 1753 1341 1275 1519 
Q 700 1750 528 1976 
Q 356 2203 356 2525 
Q 356 2984 745 3261 
Q 1134 3538 1703 3538 
Q 2144 3538 2522 3384 
L 2522 2794 
Q 2134 3044 1644 3044 
Q 1350 3044 1165 2916 
Q 981 2788 981 2578 
Q 981 2372 1114 2256 
Q 1247 2141 1703 1959 
Q 2281 1744 2484 1512 
Q 2688 1281 2688 941 
Q 2688 466 2298 192 
Q 1909 -81 1291 -81 
Q 753 -81 353 122 
L 353 747 
z
" transform="scale(0.015625)"/>
     </defs>
     <use xlink:href="#MicrosoftYaHei-28"/>
     <use xlink:href="#MicrosoftYaHei-61" transform="translate(33.398438 0)"/>
     <use xlink:href="#MicrosoftYaHei-29" transform="translate(88.671875 0)"/>
     <use xlink:href="#MicrosoftYaHei-20" transform="translate(122.070312 0)"/>
     <use xlink:href="#MicrosoftYaHei-53ef" transform="translate(151.660156 0)"/>
     <use xlink:href="#MicrosoftYaHei-884c" transform="translate(251.660156 0)"/>
     <use xlink:href="#MicrosoftYaHei-6027" transform="translate(351.660156 0)"/>
     <use xlink:href="#MicrosoftYaHei-8bef" transform="translate(451.660156 0)"/>
     <use xlink:href="#MicrosoftYaHei-5dee" transform="translate(551.660156 0)"/>
     <use xlink:href="#MicrosoftYaHei-ff08" transform="translate(651.660156 0)"/>
     <use xlink:href="#MicrosoftYaHei-63d2" transform="translate(751.660156 0)"/>
     <use xlink:href="#MicrosoftYaHei-503c" transform="translate(851.660156 0)"/>
     <use xlink:href="#MicrosoftYaHei-20" transform="translate(951.660156 0)"/>
     <use xlink:href="#MicrosoftYaHei-76" transform="translate(981.25 0)"/>
     <use xlink:href="#MicrosoftYaHei-73" transform="translate(1033.740234 0)"/>
     <use xlink:href="#MicrosoftYaHei-20" transform="translate(1080.029297 0)"/>
     <use xlink:href="#MicrosoftYaHei-5916" transform="translate(1109.619141 0)"/>
     <use xlink:href="#MicrosoftYaHei-63a8" transform="translate(1209.619141 0)"/>
     <use xlink:href="#MicrosoftYaHei-ff09" transform="translate(1309.619141 0)"/>
    </g>
   </g>
   <g id="PathCollection_3">
    <defs>
     <path id="maa2435c16e" d="M 0 6.892024 
L 6.892024 0 
L 0 -6.892024 
L -6.892024 0 
z
" style="stroke: #5da5da; stroke-width: 1.8"/>
    </defs>
    <g clip-path="url(#pfab61ef530)">
     <use xlink:href="#maa2435c16e" x="154.620141" y="110.146093" style="fill: #ffffff; stroke: #5da5da; stroke-width: 1.8"/>
    </g>
   </g>
   <g id="PathCollection_4">
    <g clip-path="url(#pfab61ef530)">
     <use xlink:href="#maa2435c16e" x="338.833236" y="307.444661" style="fill: #ffffff; stroke: #5da5da; stroke-width: 1.8"/>
    </g>
   </g>
  </g>
  <g id="axes_2">
   <g id="patch_7">
    <path d="M 481.854783 375.8 
L 850.280972 375.8 
L 850.280972 69.64 
L 481.854783 69.64 
z
" style="fill: #ffffff"/>
   </g>
   <g id="matplotlib.axis_3">
    <g id="xtick_3">
     <g id="line2d_27">
      <g>
       <use xlink:href="#m733ee78ec3" x="573.96133" y="375.8" style="stroke: #000000; stroke-width: 0.8"/>
      </g>
     </g>
     <g id="text_12">
      <!-- 插值 (θ=80) -->
      <g transform="translate(543.62969 391.593125) scale(0.11 -0.11)">
       <use xlink:href="#MicrosoftYaHei-63d2"/>
       <use xlink:href="#MicrosoftYaHei-503c" transform="translate(100 0)"/>
       <use xlink:href="#MicrosoftYaHei-20" transform="translate(200 0)"/>
       <use xlink:href="#MicrosoftYaHei-28" transform="translate(229.589844 0)"/>
       <use xlink:href="#MicrosoftYaHei-3b8" transform="translate(262.988281 0)"/>
       <use xlink:href="#MicrosoftYaHei-3d" transform="translate(326.611328 0)"/>
       <use xlink:href="#MicrosoftYaHei-38" transform="translate(400.78125 0)"/>
       <use xlink:href="#MicrosoftYaHei-30" transform="translate(459.423828 0)"/>
       <use xlink:href="#MicrosoftYaHei-29" transform="translate(518.066406 0)"/>
      </g>
     </g>
    </g>
    <g id="xtick_4">
     <g id="line2d_28">
      <g>
       <use xlink:href="#m733ee78ec3" x="758.174425" y="375.8" style="stroke: #000000; stroke-width: 0.8"/>
      </g>
     </g>
     <g id="text_13">
      <!-- 外推 (θ=120) -->
      <g transform="translate(724.61755 391.593125) scale(0.11 -0.11)">
       <use xlink:href="#MicrosoftYaHei-5916"/>
       <use xlink:href="#MicrosoftYaHei-63a8" transform="translate(100 0)"/>
       <use xlink:href="#MicrosoftYaHei-20" transform="translate(200 0)"/>
       <use xlink:href="#MicrosoftYaHei-28" transform="translate(229.589844 0)"/>
       <use xlink:href="#MicrosoftYaHei-3b8" transform="translate(262.988281 0)"/>
       <use xlink:href="#MicrosoftYaHei-3d" transform="translate(326.611328 0)"/>
       <use xlink:href="#MicrosoftYaHei-31" transform="translate(400.78125 0)"/>
       <use xlink:href="#MicrosoftYaHei-32" transform="translate(459.423828 0)"/>
       <use xlink:href="#MicrosoftYaHei-30" transform="translate(518.066406 0)"/>
       <use xlink:href="#MicrosoftYaHei-29" transform="translate(576.708984 0)"/>
      </g>
     </g>
    </g>
   </g>
   <g id="matplotlib.axis_4">
    <g id="ytick_8">
     <g id="line2d_29">
      <path d="M 481.854783 375.8 
L 850.280972 375.8 
" clip-path="url(#p0b91ac729e)" style="fill: none; stroke-dasharray: 2.96,1.28; stroke-dashoffset: 0; stroke: #b0b0b0; stroke-opacity: 0.22; stroke-width: 0.8"/>
     </g>
     <g id="line2d_30">
      <g>
       <use xlink:href="#mb29aa04de2" x="481.854783" y="375.8" style="stroke: #000000; stroke-width: 0.8"/>
      </g>
     </g>
     <g id="text_14">
      <!-- 0.0 -->
      <g transform="translate(459.305252 380.196562) scale(0.11 -0.11)">
       <defs>
        <path id="MicrosoftYaHei-2e" d="M 372 322 
Q 372 491 487 606 
Q 603 722 775 722 
Q 950 722 1065 605 
Q 1181 488 1181 322 
Q 1181 159 1065 42 
Q 950 -75 772 -75 
Q 600 -75 486 42 
Q 372 159 372 322 
z
" transform="scale(0.015625)"/>
       </defs>
       <use xlink:href="#MicrosoftYaHei-30"/>
       <use xlink:href="#MicrosoftYaHei-2e" transform="translate(58.642578 0)"/>
       <use xlink:href="#MicrosoftYaHei-30" transform="translate(82.714844 0)"/>
      </g>
     </g>
    </g>
    <g id="ytick_9">
     <g id="line2d_31">
      <path d="M 481.854783 307.764444 
L 850.280972 307.764444 
" clip-path="url(#p0b91ac729e)" style="fill: none; stroke-dasharray: 2.96,1.28; stroke-dashoffset: 0; stroke: #b0b0b0; stroke-opacity: 0.22; stroke-width: 0.8"/>
     </g>
     <g id="line2d_32">
      <g>
       <use xlink:href="#mb29aa04de2" x="481.854783" y="307.764444" style="stroke: #000000; stroke-width: 0.8"/>
      </g>
     </g>
     <g id="text_15">
      <!-- 0.1 -->
      <g transform="translate(459.305252 312.161007) scale(0.11 -0.11)">
       <use xlink:href="#MicrosoftYaHei-30"/>
       <use xlink:href="#MicrosoftYaHei-2e" transform="translate(58.642578 0)"/>
       <use xlink:href="#MicrosoftYaHei-31" transform="translate(82.714844 0)"/>
      </g>
     </g>
    </g>
    <g id="ytick_10">
     <g id="line2d_33">
      <path d="M 481.854783 239.728889 
L 850.280972 239.728889 
" clip-path="url(#p0b91ac729e)" style="fill: none; stroke-dasharray: 2.96,1.28; stroke-dashoffset: 0; stroke: #b0b0b0; stroke-opacity: 0.22; stroke-width: 0.8"/>
     </g>
     <g id="line2d_34">
      <g>
       <use xlink:href="#mb29aa04de2" x="481.854783" y="239.728889" style="stroke: #000000; stroke-width: 0.8"/>
      </g>
     </g>
     <g id="text_16">
      <!-- 0.2 -->
      <g transform="translate(459.305252 244.125451) scale(0.11 -0.11)">
       <use xlink:href="#MicrosoftYaHei-30"/>
       <use xlink:href="#MicrosoftYaHei-2e" transform="translate(58.642578 0)"/>
       <use xlink:href="#MicrosoftYaHei-32" transform="translate(82.714844 0)"/>
      </g>
     </g>
    </g>
    <g id="ytick_11">
     <g id="line2d_35">
      <path d="M 481.854783 171.693333 
L 850.280972 171.693333 
" clip-path="url(#p0b91ac729e)" style="fill: none; stroke-dasharray: 2.96,1.28; stroke-dashoffset: 0; stroke: #b0b0b0; stroke-opacity: 0.22; stroke-width: 0.8"/>
     </g>
     <g id="line2d_36">
      <g>
       <use xlink:href="#mb29aa04de2" x="481.854783" y="171.693333" style="stroke: #000000; stroke-width: 0.8"/>
      </g>
     </g>
     <g id="text_17">
      <!-- 0.3 -->
      <g transform="translate(459.305252 176.089896) scale(0.11 -0.11)">
       <defs>
        <path id="MicrosoftYaHei-33" d="M 447 809 
Q 944 425 1569 425 
Q 2069 425 2361 670 
Q 2653 916 2653 1328 
Q 2653 2247 1338 2247 
L 934 2247 
L 934 2753 
L 1319 2753 
Q 2484 2753 2484 3616 
Q 2484 4413 1594 4413 
Q 1084 4413 634 4069 
L 634 4647 
Q 1109 4922 1744 4922 
Q 2363 4922 2738 4598 
Q 3113 4275 3113 3759 
Q 3113 2809 2144 2538 
L 2144 2525 
Q 2669 2469 2973 2155 
Q 3278 1841 3278 1372 
Q 3278 719 2808 319 
Q 2338 -81 1556 -81 
Q 869 -81 447 175 
L 447 809 
z
" transform="scale(0.015625)"/>
       </defs>
       <use xlink:href="#MicrosoftYaHei-30"/>
       <use xlink:href="#MicrosoftYaHei-2e" transform="translate(58.642578 0)"/>
       <use xlink:href="#MicrosoftYaHei-33" transform="translate(82.714844 0)"/>
      </g>
     </g>
    </g>
    <g id="ytick_12">
     <g id="line2d_37">
      <path d="M 481.854783 103.657778 
L 850.280972 103.657778 
" clip-path="url(#p0b91ac729e)" style="fill: none; stroke-dasharray: 2.96,1.28; stroke-dashoffset: 0; stroke: #b0b0b0; stroke-opacity: 0.22; stroke-width: 0.8"/>
     </g>
     <g id="line2d_38">
      <g>
       <use xlink:href="#mb29aa04de2" x="481.854783" y="103.657778" style="stroke: #000000; stroke-width: 0.8"/>
      </g>
     </g>
     <g id="text_18">
      <!-- 0.4 -->
      <g transform="translate(459.305252 108.05434) scale(0.11 -0.11)">
       <defs>
        <path id="MicrosoftYaHei-34" d="M 2906 4841 
L 2906 1644 
L 3631 1644 
L 3631 1138 
L 2906 1138 
L 2906 0 
L 2313 0 
L 2313 1138 
L 53 1138 
L 53 1616 
Q 656 2294 1265 3178 
Q 1875 4063 2272 4841 
L 2906 4841 
z
M 741 1644 
L 2313 1644 
L 2313 3950 
Q 1988 3366 1616 2817 
Q 1244 2269 741 1644 
z
" transform="scale(0.015625)"/>
       </defs>
       <use xlink:href="#MicrosoftYaHei-30"/>
       <use xlink:href="#MicrosoftYaHei-2e" transform="translate(58.642578 0)"/>
       <use xlink:href="#MicrosoftYaHei-34" transform="translate(82.714844 0)"/>
      </g>
     </g>
    </g>
    <g id="text_19">
     <!-- 最优性误差 -->
     <g transform="translate(452.073533 255.22) rotate(-90) scale(0.13 -0.13)">
      <defs>
       <path id="MicrosoftYaHei-6700" d="M 169 -28 
Q 475 3 781 38 
L 781 2416 
L 94 2416 
L 94 2791 
L 6288 2791 
L 6288 2416 
L 3025 2416 
L 3025 331 
Q 3325 375 3625 422 
Q 3619 309 3631 22 
Q 3338 -19 3025 -63 
L 3025 -859 
L 2600 -859 
L 2600 -125 
Q 1525 -278 281 -472 
L 169 -28 
z
M 1038 5053 
L 5363 5053 
L 5363 3047 
L 4925 3047 
L 4925 3191 
L 1475 3191 
L 1475 3047 
L 1038 3047 
L 1038 5053 
z
M 3338 1609 
L 3338 1972 
L 5819 1972 
L 5819 1609 
Q 5500 844 4981 278 
Q 5516 -113 6306 -316 
Q 6144 -553 6025 -753 
Q 5219 -488 4666 -34 
Q 4128 -516 3413 -822 
Q 3306 -634 3125 -428 
Q 3834 -156 4347 266 
Q 3825 825 3603 1609 
L 3338 1609 
z
M 1475 3553 
L 4925 3553 
L 4925 3953 
L 1475 3953 
L 1475 3553 
z
M 4925 4691 
L 1475 4691 
L 1475 4291 
L 4925 4291 
L 4925 4691 
z
M 5344 1609 
L 4025 1609 
Q 4222 994 4659 556 
Q 5094 1013 5344 1609 
z
M 2600 269 
L 2600 691 
L 1206 691 
L 1206 88 
Q 1913 172 2600 269 
z
M 1206 1916 
L 2600 1916 
L 2600 2416 
L 1206 2416 
L 1206 1916 
z
M 1206 1053 
L 2600 1053 
L 2600 1553 
L 1206 1553 
L 1206 1053 
z
" transform="scale(0.015625)"/>
       <path id="MicrosoftYaHei-4f18" d="M 1825 3609 
L 3184 3609 
Q 3216 4322 3213 5272 
L 3713 5272 
Q 3719 4338 3688 3609 
L 6188 3609 
L 6188 3153 
L 4475 3153 
L 4475 228 
Q 4475 -122 4838 -122 
L 5244 -122 
Q 5656 -122 5700 303 
Q 5750 659 5781 1266 
Q 6031 1166 6294 1066 
Q 6244 528 6175 109 
Q 6100 -291 5900 -447 
Q 5713 -603 5275 -597 
L 4763 -597 
Q 4325 -597 4150 -422 
Q 3969 -259 3969 184 
L 3969 3153 
L 3663 3153 
Q 3600 791 1950 -803 
Q 1775 -597 1575 -397 
Q 3100 1028 3159 3153 
L 1825 3153 
L 1825 3609 
z
M 88 2334 
Q 1056 3641 1556 5291 
L 2063 5122 
Q 1753 4253 1388 3522 
L 1388 -809 
L 913 -809 
L 913 2666 
Q 616 2184 288 1778 
Q 194 2047 88 2334 
z
M 4600 5184 
Q 5269 4759 5713 4391 
Q 5538 4197 5388 3991 
Q 4875 4447 4325 4841 
L 4600 5184 
z
" transform="scale(0.015625)"/>
      </defs>
      <use xlink:href="#MicrosoftYaHei-6700"/>
      <use xlink:href="#MicrosoftYaHei-4f18" transform="translate(100 0)"/>
      <use xlink:href="#MicrosoftYaHei-6027" transform="translate(200 0)"/>
      <use xlink:href="#MicrosoftYaHei-8bef" transform="translate(300 0)"/>
      <use xlink:href="#MicrosoftYaHei-5dee" transform="translate(400 0)"/>
     </g>
    </g>
   </g>
   <g id="patch_8">
    <path d="M 535.27658 237.071056 
L 612.64608 237.071056 
L 612.64608 226.542956 
L 535.27658 226.542956 
L 535.27658 237.071056 
z
" clip-path="url(#p0b91ac729e)" style="fill: #f17c67; opacity: 0.26; stroke: #f17c67; stroke-width: 1.2; stroke-linejoin: miter"/>
   </g>
   <g id="line2d_39">
    <path d="M 573.96133 237.071056 
L 573.96133 248.709848 
" clip-path="url(#p0b91ac729e)" style="fill: none; stroke: #f17c67; stroke-width: 1.1; stroke-linecap: square"/>
   </g>
   <g id="line2d_40">
    <path d="M 573.96133 226.542956 
L 573.96133 214.326048 
" clip-path="url(#p0b91ac729e)" style="fill: none; stroke: #f17c67; stroke-width: 1.1; stroke-linecap: square"/>
   </g>
   <g id="line2d_41">
    <path d="M 554.618955 248.709848 
L 593.303705 248.709848 
" clip-path="url(#p0b91ac729e)" style="fill: none; stroke: #f17c67; stroke-width: 1.1; stroke-linecap: square"/>
   </g>
   <g id="line2d_42">
    <path d="M 554.618955 214.326048 
L 593.303705 214.326048 
" clip-path="url(#p0b91ac729e)" style="fill: none; stroke: #f17c67; stroke-width: 1.1; stroke-linecap: square"/>
   </g>
   <g id="patch_9">
    <path d="M 719.489675 192.308222 
L 796.859175 192.308222 
L 796.859175 173.511039 
L 719.489675 173.511039 
L 719.489675 192.308222 
z
" clip-path="url(#p0b91ac729e)" style="fill: #f17c67; opacity: 0.26; stroke: #f17c67; stroke-width: 1.2; stroke-linejoin: miter"/>
   </g>
   <g id="line2d_43">
    <path d="M 758.174425 192.308222 
L 758.174425 195.933566 
" clip-path="url(#p0b91ac729e)" style="fill: none; stroke: #f17c67; stroke-width: 1.1; stroke-linecap: square"/>
   </g>
   <g id="line2d_44">
    <path d="M 758.174425 173.511039 
L 758.174425 169.767282 
" clip-path="url(#p0b91ac729e)" style="fill: none; stroke: #f17c67; stroke-width: 1.1; stroke-linecap: square"/>
   </g>
   <g id="line2d_45">
    <path d="M 738.83205 195.933566 
L 777.5168 195.933566 
" clip-path="url(#p0b91ac729e)" style="fill: none; stroke: #f17c67; stroke-width: 1.1; stroke-linecap: square"/>
   </g>
   <g id="line2d_46">
    <path d="M 738.83205 169.767282 
L 777.5168 169.767282 
" clip-path="url(#p0b91ac729e)" style="fill: none; stroke: #f17c67; stroke-width: 1.1; stroke-linecap: square"/>
   </g>
   <g id="line2d_47">
    <path d="M 535.27658 231.903359 
L 612.64608 231.903359 
" clip-path="url(#p0b91ac729e)" style="fill: none; stroke: #000000; stroke-width: 1.8"/>
   </g>
   <g id="line2d_48">
    <path d="M 719.489675 182.929366 
L 796.859175 182.929366 
" clip-path="url(#p0b91ac729e)" style="fill: none; stroke: #000000; stroke-width: 1.8"/>
   </g>
   <g id="patch_10">
    <path d="M 481.854783 375.8 
L 481.854783 69.64 
" style="fill: none; stroke: #000000; stroke-width: 0.8; stroke-linejoin: miter; stroke-linecap: square"/>
   </g>
   <g id="patch_11">
    <path d="M 481.854783 375.8 
L 850.280972 375.8 
" style="fill: none; stroke: #000000; stroke-width: 0.8; stroke-linejoin: miter; stroke-linecap: square"/>
   </g>
   <g id="PathCollection_5">
    <defs>
     <path id="C2_0_1022c1dadd" d="M 0 2.44949 
C 0.649612 2.44949 1.272706 2.191396 1.732051 1.732051 
C 2.191396 1.272706 2.44949 0.649612 2.44949 -0 
C 2.44949 -0.649612 2.191396 -1.272706 1.732051 -1.732051 
C 1.272706 -2.191396 0.649612 -2.44949 0 -2.44949 
C -0.649612 -2.44949 -1.272706 -2.191396 -1.732051 -1.732051 
C -2.191396 -1.272706 -2.44949 -0.649612 -2.44949 0 
C -2.44949 0.649612 -2.191396 1.272706 -1.732051 1.732051 
C -1.272706 2.191396 -0.649612 2.44949 0 2.44949 
z
"/>
    </defs>
    <g clip-path="url(#p0b91ac729e)">
     <use xlink:href="#C2_0_1022c1dadd" x="569.801287" y="214.326048" style="fill: #f17c67; fill-opacity: 0.7"/>
    </g>
    <g clip-path="url(#p0b91ac729e)">
     <use xlink:href="#C2_0_1022c1dadd" x="588.906276" y="233.191459" style="fill: #f17c67; fill-opacity: 0.7"/>
    </g>
    <g clip-path="url(#p0b91ac729e)">
     <use xlink:href="#C2_0_1022c1dadd" x="581.653868" y="248.709848" style="fill: #f17c67; fill-opacity: 0.7"/>
    </g>
    <g clip-path="url(#p0b91ac729e)">
     <use xlink:href="#C2_0_1022c1dadd" x="577.232684" y="230.615259" style="fill: #f17c67; fill-opacity: 0.7"/>
    </g>
   </g>
   <g id="PathCollection_6">
    <defs>
     <path id="C3_0_a8a85289fc" d="M 0 2.44949 
C 0.649612 2.44949 1.272706 2.191396 1.732051 1.732051 
C 2.191396 1.272706 2.44949 0.649612 2.44949 -0 
C 2.44949 -0.649612 2.191396 -1.272706 1.732051 -1.732051 
C 1.272706 -2.191396 0.649612 -2.44949 0 -2.44949 
C -0.649612 -2.44949 -1.272706 -2.191396 -1.732051 -1.732051 
C -2.191396 -1.272706 -2.44949 -0.649612 -2.44949 0 
C -2.44949 0.649612 -2.191396 1.272706 -1.732051 1.732051 
C -1.272706 2.191396 -0.649612 2.44949 0 2.44949 
z
"/>
    </defs>
    <g clip-path="url(#p0b91ac729e)">
     <use xlink:href="#C3_0_a8a85289fc" x="746.768568" y="195.933566" style="fill: #f17c67; fill-opacity: 0.7"/>
    </g>
    <g clip-path="url(#p0b91ac729e)">
     <use xlink:href="#C3_0_a8a85289fc" x="746.767768" y="169.767282" style="fill: #f17c67; fill-opacity: 0.7"/>
    </g>
    <g clip-path="url(#p0b91ac729e)">
     <use xlink:href="#C3_0_a8a85289fc" x="743.521204" y="191.099774" style="fill: #f17c67; fill-opacity: 0.7"/>
    </g>
    <g clip-path="url(#p0b91ac729e)">
     <use xlink:href="#C3_0_a8a85289fc" x="770.316224" y="174.758958" style="fill: #f17c67; fill-opacity: 0.7"/>
    </g>
   </g>
   <g id="text_20">
    <!-- (b) 最优性误差（插值 vs 外推） -->
    <g transform="translate(559.699128 59.64) scale(0.15 -0.15)">
     <defs>
      <path id="MicrosoftYaHei-62" d="M 1159 488 
L 1159 0 
L 547 0 
L 547 5116 
L 1159 5116 
L 1159 2859 
L 1172 2859 
Q 1578 3538 2359 3538 
Q 3009 3538 3392 3080 
Q 3775 2622 3775 1828 
Q 3775 953 3345 436 
Q 2916 -81 2200 -81 
Q 1525 -81 1172 488 
L 1159 488 
z
M 1156 1422 
Q 1156 1003 1428 714 
Q 1700 425 2109 425 
Q 2597 425 2872 800 
Q 3147 1175 3147 1838 
Q 3147 2384 2890 2707 
Q 2634 3031 2191 3031 
Q 1741 3031 1448 2709 
Q 1156 2388 1156 1891 
L 1156 1422 
z
" transform="scale(0.015625)"/>
     </defs>
     <use xlink:href="#MicrosoftYaHei-28"/>
     <use xlink:href="#MicrosoftYaHei-62" transform="translate(33.398438 0)"/>
     <use xlink:href="#MicrosoftYaHei-29" transform="translate(97.265625 0)"/>
     <use xlink:href="#MicrosoftYaHei-20" transform="translate(130.664062 0)"/>
     <use xlink:href="#MicrosoftYaHei-6700" transform="translate(160.253906 0)"/>
     <use xlink:href="#MicrosoftYaHei-4f18" transform="translate(260.253906 0)"/>
     <use xlink:href="#MicrosoftYaHei-6027" transform="translate(360.253906 0)"/>
     <use xlink:href="#MicrosoftYaHei-8bef" transform="translate(460.253906 0)"/>
     <use xlink:href="#MicrosoftYaHei-5dee" transform="translate(560.253906 0)"/>
     <use xlink:href="#MicrosoftYaHei-ff08" transform="translate(660.253906 0)"/>
     <use xlink:href="#MicrosoftYaHei-63d2" transform="translate(760.253906 0)"/>
     <use xlink:href="#MicrosoftYaHei-503c" transform="translate(860.253906 0)"/>
     <use xlink:href="#MicrosoftYaHei-20" transform="translate(960.253906 0)"/>
     <use xlink:href="#MicrosoftYaHei-76" transform="translate(989.84375 0)"/>
     <use xlink:href="#MicrosoftYaHei-73" transform="translate(1042.333984 0)"/>
     <use xlink:href="#MicrosoftYaHei-20" transform="translate(1088.623047 0)"/>
     <use xlink:href="#MicrosoftYaHei-5916" transform="translate(1118.212891 0)"/>
     <use xlink:href="#MicrosoftYaHei-63a8" transform="translate(1218.212891 0)"/>
     <use xlink:href="#MicrosoftYaHei-ff09" transform="translate(1318.212891 0)"/>
    </g>
   </g>
   <g id="PathCollection_7">
    <defs>
     <path id="m79072d754e" d="M 0 6.892024 
L 6.892024 0 
L 0 -6.892024 
L -6.892024 0 
z
" style="stroke: #f17c67; stroke-width: 1.8"/>
    </defs>
    <g clip-path="url(#p0b91ac729e)">
     <use xlink:href="#m79072d754e" x="573.96133" y="231.710653" style="fill: #ffffff; stroke: #f17c67; stroke-width: 1.8"/>
    </g>
   </g>
   <g id="PathCollection_8">
    <g clip-path="url(#p0b91ac729e)">
     <use xlink:href="#m79072d754e" x="758.174425" y="182.889895" style="fill: #ffffff; stroke: #f17c67; stroke-width: 1.8"/>
    </g>
   </g>
  </g>
  <g id="legend_1">
   <g id="line2d_49">
    <path d="M 276.223472 17.3925 
L 288.223472 17.3925 
L 300.223472 17.3925 
" style="fill: none; stroke: #000000; stroke-opacity: 0; stroke-width: 1.5; stroke-linecap: square"/>
    <defs>
     <path id="m9f7062919a" d="M 0 4 
C 1.060812 4 2.078319 3.578535 2.828427 2.828427 
C 3.578535 2.078319 4 1.060812 4 0 
C 4 -1.060812 3.578535 -2.078319 2.828427 -2.828427 
C 2.078319 -3.578535 1.060812 -4 0 -4 
C -1.060812 -4 -2.078319 -3.578535 -2.828427 -2.828427 
C -3.578535 -2.078319 -4 -1.060812 -4 0 
C -4 1.060812 -3.578535 2.078319 -2.828427 2.828427 
C -2.078319 3.578535 -1.060812 4 0 4 
z
" style="stroke: #000000; stroke-opacity: 0"/>
    </defs>
    <g>
     <use xlink:href="#m9f7062919a" x="288.223472" y="17.3925" style="fill: #777777; stroke: #000000; stroke-opacity: 0"/>
    </g>
   </g>
   <g id="text_21">
    <!-- 各 ξ 实现（散点） -->
    <g transform="translate(309.823472 21.5925) scale(0.12 -0.12)">
     <defs>
      <path id="MicrosoftYaHei-5404" d="M 1838 5366 
L 2325 5191 
Q 2191 4934 2038 4691 
L 5463 4691 
L 5463 4234 
Q 4819 3428 3806 2831 
Q 4881 2366 6375 2266 
Q 6169 1953 6025 1703 
Q 4388 1947 3272 2544 
Q 2022 1925 300 1578 
Q 169 1828 31 2059 
Q 1591 2303 2775 2844 
Q 2041 3347 1588 4038 
Q 1138 3444 569 2916 
Q 400 3122 225 3278 
Q 1288 4191 1838 5366 
z
M 1100 1666 
L 5363 1666 
L 5363 -803 
L 4875 -803 
L 4875 -441 
L 1588 -441 
L 1588 -803 
L 1100 -803 
L 1100 1666 
z
M 4875 1216 
L 1588 1216 
L 1588 -3 
L 4875 -3 
L 4875 1216 
z
M 4794 4241 
L 1988 4241 
Q 2494 3547 3275 3094 
Q 4153 3575 4794 4241 
z
" transform="scale(0.015625)"/>
      <path id="MicrosoftYaHei-3be" d="M 2775 -1063 
L 2113 -1063 
Q 2447 -800 2447 -519 
Q 2447 -331 2301 -207 
Q 2156 -84 1603 -9 
Q 956 75 606 434 
Q 256 794 256 1378 
Q 256 1822 536 2176 
Q 816 2531 1325 2713 
Q 581 2938 581 3544 
Q 581 3913 897 4202 
Q 1213 4491 1747 4622 
L 1747 4647 
L 556 4631 
L 556 5119 
L 2644 5119 
L 2644 4625 
Q 1994 4528 1594 4253 
Q 1194 3978 1194 3597 
Q 1194 3266 1476 3087 
Q 1759 2909 2066 2909 
L 2584 2928 
L 2584 2384 
L 2191 2397 
Q 1631 2397 1257 2136 
Q 884 1875 884 1431 
Q 884 716 1819 566 
Q 2488 453 2755 218 
Q 3022 -16 3022 -416 
Q 3022 -784 2775 -1063 
z
" transform="scale(0.015625)"/>
      <path id="MicrosoftYaHei-5b9e" d="M 113 -397 
Q 2419 34 3081 972 
L 213 972 
L 213 1434 
L 3313 1434 
Q 3525 2084 3506 3703 
L 4031 3703 
Q 4031 2097 3856 1434 
L 6225 1434 
L 6225 972 
L 3681 972 
Q 3631 872 3563 759 
Q 4900 197 6181 -403 
L 5906 -878 
Q 4569 -197 3263 391 
Q 2413 -441 413 -891 
Q 269 -616 113 -397 
z
M 331 4422 
L 3194 4422 
Q 3038 4703 2775 5078 
L 3231 5334 
Q 3438 5059 3731 4609 
L 3388 4422 
L 6063 4422 
L 6063 3303 
L 5563 3303 
L 5563 3959 
L 831 3959 
L 831 3303 
L 331 3303 
L 331 4422 
z
M 1100 2734 
Q 1819 2409 2450 2053 
L 2181 1622 
Q 1556 2003 863 2334 
L 1100 2734 
z
M 1663 3691 
Q 2388 3341 2981 2984 
L 2700 2559 
Q 2119 2934 1419 3322 
L 1663 3691 
z
" transform="scale(0.015625)"/>
      <path id="MicrosoftYaHei-73b0" d="M 3900 4141 
L 4388 4141 
L 4388 3091 
Q 4388 2288 4250 1678 
L 4663 1678 
L 4663 103 
Q 4663 -228 5025 -228 
L 5325 -228 
Q 5700 -228 5738 109 
Q 5775 397 5800 928 
Q 6013 841 6313 734 
Q 6263 184 6213 -91 
Q 6119 -666 5394 -666 
L 4931 -666 
Q 4188 -666 4188 41 
L 4188 1425 
Q 4059 981 3850 653 
Q 3319 -203 2094 -834 
Q 1931 -603 1756 -422 
Q 2975 166 3450 941 
Q 3900 1641 3900 3053 
L 3900 4141 
z
M 2588 5034 
L 5781 5034 
L 5781 1284 
L 5294 1284 
L 5294 4572 
L 3075 4572 
L 3075 1197 
L 2588 1197 
L 2588 5034 
z
M 81 384 
Q 531 506 1025 647 
L 1025 2466 
L 200 2466 
L 200 2916 
L 1025 2916 
L 1025 4366 
L 150 4366 
L 150 4816 
L 2400 4816 
L 2400 4366 
L 1513 4366 
L 1513 2916 
L 2313 2916 
L 2313 2466 
L 1513 2466 
L 1513 791 
Q 1956 925 2431 1072 
Q 2444 834 2475 603 
Q 1400 272 256 -97 
L 81 384 
z
" transform="scale(0.015625)"/>
      <path id="MicrosoftYaHei-6563" d="M 4175 5328 
L 4675 5253 
Q 4531 4647 4356 4122 
L 6281 4122 
L 6281 3697 
L 5841 3697 
Q 5706 1819 5088 756 
Q 5584 131 6356 -303 
Q 6156 -566 6019 -784 
Q 5294 -288 4800 328 
Q 4291 -328 3475 -878 
Q 3338 -697 3144 -497 
Q 3994 78 4503 756 
Q 3972 1644 3809 2828 
Q 3650 2531 3475 2272 
Q 3350 2453 3163 2647 
Q 3288 2844 3400 3059 
L 125 3059 
L 125 3459 
L 919 3459 
L 919 4197 
L 250 4197 
L 250 4597 
L 919 4597 
L 919 5309 
L 1369 5309 
L 1369 4597 
L 2250 4597 
L 2250 5309 
L 2700 5309 
L 2700 4597 
L 3313 4597 
L 3313 4197 
L 2700 4197 
L 2700 3459 
L 3425 3459 
L 3425 3106 
Q 3919 4069 4175 5328 
z
M 950 -834 
L 500 -834 
L 500 2584 
L 3100 2584 
L 3100 -41 
Q 3100 -759 2425 -759 
Q 2150 -759 1825 -753 
Q 1788 -509 1738 -291 
Q 2056 -316 2325 -316 
Q 2650 -316 2650 34 
L 2650 372 
L 950 372 
L 950 -834 
z
M 5378 3697 
L 4200 3697 
Q 4175 3625 4147 3556 
Q 4281 2116 4788 1206 
Q 5275 2119 5378 3697 
z
M 950 766 
L 2650 766 
L 2650 1278 
L 950 1278 
L 950 766 
z
M 2650 2184 
L 950 2184 
L 950 1672 
L 2650 1672 
L 2650 2184 
z
M 1369 3459 
L 2250 3459 
L 2250 4197 
L 1369 4197 
L 1369 3459 
z
" transform="scale(0.015625)"/>
      <path id="MicrosoftYaHei-70b9" d="M 900 3378 
L 2863 3378 
L 2863 5341 
L 3388 5341 
L 3388 4591 
L 6181 4591 
L 6181 4141 
L 3388 4141 
L 3388 3378 
L 5600 3378 
L 5600 991 
L 5088 991 
L 5088 1253 
L 1413 1253 
L 1413 991 
L 900 991 
L 900 3378 
z
M 5088 2928 
L 1413 2928 
L 1413 1703 
L 5088 1703 
L 5088 2928 
z
M 5425 847 
Q 5925 91 6225 -516 
L 5750 -772 
Q 5438 -134 4994 622 
L 5425 847 
z
M 1369 553 
Q 894 -303 531 -791 
L 100 -484 
Q 506 53 931 803 
L 1369 553 
z
M 2413 828 
Q 2700 197 2913 -503 
L 2406 -678 
Q 2213 3 1963 666 
L 2413 828 
z
M 3906 872 
Q 4206 253 4450 -422 
L 3956 -616 
Q 3781 -53 3450 697 
L 3906 872 
z
" transform="scale(0.015625)"/>
     </defs>
     <use xlink:href="#MicrosoftYaHei-5404"/>
     <use xlink:href="#MicrosoftYaHei-20" transform="translate(100 0)"/>
     <use xlink:href="#MicrosoftYaHei-3be" transform="translate(129.589844 0)"/>
     <use xlink:href="#MicrosoftYaHei-20" transform="translate(178.027344 0)"/>
     <use xlink:href="#MicrosoftYaHei-5b9e" transform="translate(207.617188 0)"/>
     <use xlink:href="#MicrosoftYaHei-73b0" transform="translate(307.617188 0)"/>
     <use xlink:href="#MicrosoftYaHei-ff08" transform="translate(407.617188 0)"/>
     <use xlink:href="#MicrosoftYaHei-6563" transform="translate(507.617188 0)"/>
     <use xlink:href="#MicrosoftYaHei-70b9" transform="translate(607.617188 0)"/>
     <use xlink:href="#MicrosoftYaHei-ff09" transform="translate(707.617188 0)"/>
    </g>
   </g>
   <g id="line2d_50">
    <path d="M 430.738472 17.3925 
L 442.738472 17.3925 
L 454.738472 17.3925 
" style="fill: none; stroke: #000000; stroke-opacity: 0; stroke-width: 1.5; stroke-linecap: square"/>
    <defs>
     <path id="m59c5a697c4" d="M 0 6.363961 
L 6.363961 0 
L 0 -6.363961 
L -6.363961 0 
z
" style="stroke: #777777; stroke-width: 1.6; stroke-linejoin: miter"/>
    </defs>
    <g>
     <use xlink:href="#m59c5a697c4" x="442.738472" y="17.3925" style="fill: #ffffff; stroke: #777777; stroke-width: 1.6; stroke-linejoin: miter"/>
    </g>
   </g>
   <g id="text_22">
    <!-- 均值 -->
    <g transform="translate(464.338472 21.5925) scale(0.12 -0.12)">
     <defs>
      <path id="MicrosoftYaHei-5747" d="M 2244 2803 
Q 2931 3953 3338 5322 
L 3838 5172 
Q 3691 4744 3531 4347 
L 6013 4347 
Q 5925 1053 5875 297 
Q 5831 -697 4806 -697 
Q 4188 -697 3706 -672 
Q 3669 -422 3606 -141 
L 3625 -141 
Q 4250 -209 4775 -209 
Q 5350 -209 5394 378 
Q 5456 1447 5513 3891 
L 3341 3891 
Q 3028 3172 2675 2572 
Q 2481 2691 2244 2803 
z
M 81 428 
Q 559 600 1006 769 
L 1006 3253 
L 169 3253 
L 169 3697 
L 1006 3697 
L 1006 5259 
L 1469 5259 
L 1469 3697 
L 2281 3697 
L 2281 3253 
L 1469 3253 
L 1469 947 
Q 1922 1125 2338 1303 
Q 2350 991 2369 784 
Q 1363 403 250 -53 
L 81 428 
z
M 2513 853 
Q 3769 1353 5119 1934 
Q 5150 1641 5188 1434 
Q 4031 947 2706 359 
L 2513 853 
z
M 3138 2909 
L 3481 3216 
Q 4025 2716 4531 2216 
L 4125 1859 
Q 3644 2409 3138 2909 
z
" transform="scale(0.015625)"/>
     </defs>
     <use xlink:href="#MicrosoftYaHei-5747"/>
     <use xlink:href="#MicrosoftYaHei-503c" transform="translate(100 0)"/>
    </g>
   </g>
   <g id="line2d_51">
    <path d="M 512.338472 17.3925 
L 524.338472 17.3925 
L 536.338472 17.3925 
" style="fill: none; stroke: #000000; stroke-width: 2; stroke-linecap: square"/>
   </g>
   <g id="text_23">
    <!-- 中位数 -->
    <g transform="translate(545.938472 21.5925) scale(0.12 -0.12)">
     <defs>
      <path id="MicrosoftYaHei-4e2d" d="M 525 3972 
L 2931 3972 
L 2931 5334 
L 3469 5334 
L 3469 3972 
L 5900 3972 
L 5900 1122 
L 5388 1122 
L 5388 1459 
L 3469 1459 
L 3469 -866 
L 2931 -866 
L 2931 1459 
L 1038 1459 
L 1038 1122 
L 525 1122 
L 525 3972 
z
M 5388 3509 
L 3469 3509 
L 3469 1922 
L 5388 1922 
L 5388 3509 
z
M 1038 1922 
L 2931 1922 
L 2931 3509 
L 1038 3509 
L 1038 1922 
z
" transform="scale(0.015625)"/>
      <path id="MicrosoftYaHei-4f4d" d="M 1788 -59 
L 4228 -59 
Q 4678 1144 5269 3372 
L 5831 3203 
Q 5453 2044 4756 -59 
L 6319 -59 
L 6319 -522 
L 1788 -522 
L 1788 -59 
z
M 81 2291 
Q 975 3641 1431 5322 
L 1963 5191 
Q 1703 4397 1406 3709 
L 1406 -853 
L 938 -853 
L 938 2731 
Q 644 2181 319 1716 
Q 231 1953 81 2291 
z
M 1919 4191 
L 4122 4191 
Q 3844 4659 3506 5059 
L 3931 5353 
Q 4206 5034 4613 4497 
L 4150 4191 
L 6206 4191 
L 6206 3728 
L 1919 3728 
L 1919 4191 
z
M 2769 3309 
Q 3181 2184 3669 584 
L 3150 434 
Q 2725 1966 2294 3147 
L 2769 3309 
z
" transform="scale(0.015625)"/>
     </defs>
     <use xlink:href="#MicrosoftYaHei-4e2d"/>
     <use xlink:href="#MicrosoftYaHei-4f4d" transform="translate(100 0)"/>
     <use xlink:href="#MicrosoftYaHei-6570" transform="translate(200 0)"/>
    </g>
   </g>
  </g>
 </g>
 <defs>
  <clipPath id="pfab61ef530">
   <rect x="62.513594" y="69.64" width="368.426189" height="306.16"/>
  </clipPath>
  <clipPath id="p0b91ac729e">
   <rect x="481.854783" y="69.64" width="368.426189" height="306.16"/>
  </clipPath>
 </defs>
</svg>
